<svg width="24" height="24" viewBox="0 0 24 24" fill="none" xmlns="http://www.w3.org/2000/svg">
<g id="instagram 2" clip-path="url(#clip0_626468_962)">
<path id="Vector" d="M23.9763 7.05607C23.9201 5.78085 23.7139 4.90416 23.4185 4.14449C23.1137 3.33812 22.6449 2.61617 22.0306 2.01602C21.4305 1.40652 20.7038 0.932921 19.9068 0.632936C19.1427 0.337529 18.2706 0.131312 16.9954 0.0750879C15.7106 0.0141019 15.3028 0 12.0443 0C8.78588 0 8.37803 0.0141019 7.09805 0.0703262C5.82284 0.126551 4.94614 0.332951 4.18666 0.628174C3.3801 0.932922 2.65816 1.40176 2.05801 2.01602C1.44852 2.61617 0.975096 3.34288 0.674928 4.13991C0.379521 4.90416 0.173304 5.77609 0.11708 7.0513C0.056094 8.33604 0.0419922 8.7439 0.0419922 12.0023C0.0419922 15.2608 0.056094 15.6686 0.112318 16.9486C0.168543 18.2238 0.374943 19.1005 0.670349 19.8602C0.975096 20.6666 1.44852 21.3885 2.05801 21.9887C2.65816 22.5982 3.38487 23.0718 4.1819 23.3718C4.94614 23.6672 5.81808 23.8734 7.09347 23.9296C8.37326 23.986 8.7813 23.9999 12.0397 23.9999C15.2982 23.9999 15.706 23.986 16.986 23.9296C18.2612 23.8734 19.1379 23.6672 19.8974 23.3718C21.5103 22.7482 22.7855 21.4729 23.4091 19.8602C23.7044 19.096 23.9108 18.2238 23.967 16.9486C24.0232 15.6686 24.0373 15.2608 24.0373 12.0023C24.0373 8.7439 24.0326 8.33604 23.9763 7.05607ZM21.8151 16.8549C21.7634 18.027 21.5666 18.6599 21.4025 19.0819C20.9992 20.1274 20.1694 20.9572 19.1238 21.3605C18.7019 21.5246 18.0644 21.7215 16.8968 21.7729C15.631 21.8293 15.2513 21.8433 12.0491 21.8433C8.84687 21.8433 8.46245 21.8293 7.20116 21.7729C6.02906 21.7215 5.39612 21.5246 4.97416 21.3605C4.45386 21.1682 3.98026 20.8634 3.59584 20.4649C3.19733 20.0758 2.89258 19.6069 2.70028 19.0866C2.53619 18.6647 2.33931 18.027 2.28785 16.8596C2.23144 15.5937 2.21753 15.2139 2.21753 12.0117C2.21753 8.80946 2.23144 8.42505 2.28785 7.16394C2.33931 5.99183 2.53619 5.3589 2.70028 4.93694C2.89258 4.41645 3.19733 3.94303 3.60061 3.55843C3.9896 3.15992 4.45844 2.85517 4.97893 2.66306C5.40088 2.49896 6.03858 2.30209 7.20592 2.25044C8.47179 2.19422 8.85163 2.18011 12.0537 2.18011C15.2606 2.18011 15.6403 2.19422 16.9016 2.25044C18.0737 2.30209 18.7066 2.49896 19.1286 2.66306C19.6489 2.85517 20.1225 3.15992 20.5069 3.55843C20.9054 3.94761 21.2102 4.41645 21.4025 4.93694C21.5666 5.3589 21.7634 5.99641 21.8151 7.16394C21.8713 8.42981 21.8854 8.80946 21.8854 12.0117C21.8854 15.2139 21.8713 15.589 21.8151 16.8549Z" fill="#F4F4FD"/>
<path id="Vector_2" d="M12.0442 5.83704C8.64049 5.83704 5.87891 8.59844 5.87891 12.0023C5.87891 15.4062 8.64049 18.1676 12.0442 18.1676C15.448 18.1676 18.2094 15.4062 18.2094 12.0023C18.2094 8.59844 15.448 5.83704 12.0442 5.83704ZM12.0442 16.0016C9.83604 16.0016 8.04492 14.2106 8.04492 12.0023C8.04492 9.79398 9.83604 8.00305 12.0442 8.00305C14.2525 8.00305 16.0434 9.79398 16.0434 12.0023C16.0434 14.2106 14.2525 16.0016 12.0442 16.0016Z" fill="#F4F4FD"/>
<path id="Vector_3" d="M19.8935 5.59336C19.8935 6.3882 19.249 7.03267 18.454 7.03267C17.6591 7.03267 17.0146 6.3882 17.0146 5.59336C17.0146 4.79835 17.6591 4.15405 18.454 4.15405C19.249 4.15405 19.8935 4.79835 19.8935 5.59336Z" fill="#F4F4FD"/>
</g>
<defs>
<clipPath id="clip0_626468_962">
<rect width="24" height="24" fill="white"/>
</clipPath>
</defs>
</svg>
