<svg width="24" height="24" viewBox="0 0 24 24" fill="none" xmlns="http://www.w3.org/2000/svg">
<g id="linkedin 1" clip-path="url(#clip0_626468_927)">
<path id="Vector" d="M23.9943 24.0001V23.9991H24.0003V15.1971C24.0003 10.8911 23.0733 7.5741 18.0393 7.5741C15.6193 7.5741 13.9953 8.9021 13.3323 10.1611H13.2623V7.9761H8.48926V23.9991H13.4593V16.0651C13.4593 13.9761 13.8553 11.9561 16.4423 11.9561C18.9913 11.9561 19.0293 14.3401 19.0293 16.1991V24.0001H23.9943Z" fill="#F4F4FD"/>
<path id="Vector_2" d="M0.396484 7.97693H5.37249V23.9999H0.396484V7.97693Z" fill="#F4F4FD"/>
<path id="Vector_3" d="M2.882 0C1.291 0 0 1.291 0 2.882C0 4.473 1.291 5.791 2.882 5.791C4.473 5.791 5.764 4.473 5.764 2.882C5.763 1.291 4.472 0 2.882 0V0Z" fill="#F4F4FD"/>
</g>
<defs>
<clipPath id="clip0_626468_927">
<rect width="24" height="24" fill="white"/>
</clipPath>
</defs>
</svg>
